<?xml version="1.0" standalone="no"?><!DOCTYPE svg PUBLIC "-//W3C//DTD SVG 1.1//EN" "http://www.w3.org/Graphics/SVG/1.1/DTD/svg11.dtd"><svg t="1781687135471" class="icon" viewBox="0 0 1024 1024" version="1.1" xmlns="http://www.w3.org/2000/svg" p-id="4904" xmlns:xlink="http://www.w3.org/1999/xlink" width="200" height="200"><path d="M512 0c283.428571 0 512 228.571429 512 512s-228.571429 512-512 512S0 795.428571 0 512 228.571429 0 512 0z m0 73.142857C268.8 73.142857 73.142857 268.8 73.142857 512s195.657143 438.857143 438.857143 438.857143 438.857143-195.657143 438.857143-438.857143S755.2 73.142857 512 73.142857z m0 621.714286a36.571429 36.571429 0 1 1 0 73.142857 36.571429 36.571429 0 0 1 0-73.142857z m0-440.685714c47.542857 0 93.257143 18.285714 128 47.542857 36.571429 31.085714 56.685714 73.142857 54.857143 120.685714 0 65.828571-43.885714 126.171429-111.542857 151.771429-20.114286 7.314286-34.742857 29.257143-34.742857 51.2v25.6c0 5.485714-3.657143 9.142857-9.142858 9.142857h-54.857142c-5.485714 0-9.142857-3.657143-9.142858-9.142857v-23.771429c0-27.428571 7.314286-53.028571 21.942858-74.971429 14.628571-21.942857 36.571429-38.4 60.342857-47.542857 38.4-16.457143 64-49.371429 64-84.114285 0-51.2-49.371429-91.428571-109.714286-91.428572s-109.714286 40.228571-109.714286 91.428572v9.142857c0 5.485714-3.657143 9.142857-9.142857 9.142857h-54.857143c-5.485714 0-9.142857-3.657143-9.142857-9.142857v-9.142857c0-45.714286 18.285714-87.771429 54.857143-118.857143 34.742857-31.085714 80.457143-47.542857 128-47.542857z" fill="#2c2c2c" p-id="4905"></path></svg>