<?xml version="1.0" standalone="no"?><!DOCTYPE svg PUBLIC "-//W3C//DTD SVG 1.1//EN" "http://www.w3.org/Graphics/SVG/1.1/DTD/svg11.dtd"><svg t="1782355934220" class="icon" viewBox="0 0 1024 1024" version="1.1" xmlns="http://www.w3.org/2000/svg" p-id="51349" width="512" height="512" xmlns:xlink="http://www.w3.org/1999/xlink"><path d="M450.66344 529.684L50.09544 339.18C22.20544 328.377 3.82144 301.543 3.82144 271.633c0-29.91 18.383-56.744 46.274-67.546L450.66344 13.582a144.87 144.87 0 0 1 122.054 0L973.28544 204.087c27.89 10.802 46.274 37.636 46.274 67.546 0 29.91-18.383 56.744-46.274 67.546L572.71744 529.684a144.87 144.87 0 0 1-122.054 0z" fill="#3699ff" p-id="51350"></path><path d="M511.69044 784.476a189.964 189.964 0 0 1-84.025-19.557L34.70244 569.705a54.327 54.327 0 1 1 48.17-96.882l392.6 195.213a82.939 82.939 0 0 0 72.436 0l392.962-195.213a54.327 54.327 0 1 1 48.17 96.882L595.71544 764.919a189.42 189.42 0 0 1-84.025 19.557z m0 229.62a189.42 189.42 0 0 1-84.025-19.557L34.70244 799.325a54.327 54.327 0 1 1 48.17-96.882l392.6 195.214a81.671 81.671 0 0 0 72.436 0l392.962-195.214a54.327 54.327 0 1 1 48.17 96.882L595.71544 994.54a189.42 189.42 0 0 1-84.025 19.558z" fill="#e1f0ff" p-id="51351"></path></svg>